name processed_emg_signals
nRows=75
nColumns=7
 
endheader
time	LGLTMED	LRF	LADDLONG	LST	LTA	LGM
2.9889999999999777	0.3149109022851825	0.61297107492166	0.6172384558855656	0.3678471139430379	0.3795910914260303	0.4665692823905548
2.9899999999999776	0.3157905838462625	0.6134683187429023	0.619546317926369	0.3678763910765932	0.3799519227788629	0.4693246915453095
2.9909999999999775	0.3166711944433676	0.6140158142210425	0.6218662402678569	0.367942189759925	0.3803247246405736	0.4720994032506595
2.9919999999999773	0.3175513455023473	0.6146107588865762	0.62419559320402	0.3680415139455225	0.3807084152989295	0.4748899440786469
2.9929999999999772	0.3184296651996448	0.6152503378059777	0.6265317851596393	0.3681714263359919	0.381101933500286	0.4776928328578397
2.993999999999977	0.3193048026353931	0.6159317296775798	0.6288722662325168	0.3683290543055954	0.3815042397917393	0.4805045890021212
2.994999999999977	0.320175431889419	0.616652112884605	0.6312145316764155	0.3685115954475685	0.3819143178093879	0.4833217408251244
2.995999999999977	0.3210402559396958	0.6174086714790762	0.6335561253125803	0.3687163227386276	0.3823311755063328	0.4861408338149354
2.996999999999977	0.3218980104244071	0.6181986010723987	0.6358946428572427	0.368940589314068	0.3827538463146832	0.4889584388432872
2.9979999999999767	0.3227474672306178	0.6190191146109677	0.6382277351522343	0.3691818328486548	0.3831813902368548	0.4917711602834655
2.9989999999999766	0.3235874378937954	0.6198674480181572	0.6405531112861786	0.3694375795398998	0.3836128948618232	0.4945756440106994
2.9999999999999765	0.3244167767935728	0.6207408656864749	0.6428685415936867	0.3697054476920378	0.3840474763026283	0.4973685852587055
3.0009999999999764	0.3252343841328392	0.6216366658052405	0.6451718605199436	0.3699831509003444	0.3844842800518788	0.500146736305822
3.0019999999999762	0.3260392086890687	0.6225521855104756	0.6474609693374108	0.370268500837389	0.3849224817526383	0.5029069139644258
3.002999999999976	0.3268302503289761	0.6234848058453264	0.6497338387006616	0.3705594096447745	0.3853612878832129	0.5056460068481569
3.003999999999976	0.3276065622791646	0.6244319565215964	0.6519885110250946	0.3708538919353938	0.3857999363553485	0.5083609823926669
3.004999999999976	0.3283672531466585	0.6253911204753568	0.6542231026753003	0.3711500664124309	0.3862376970260188	0.5110488936070949
3.005999999999976	0.3291114886847288	0.6263598382110213	0.6564358059491833	0.3714461571121068	0.3866738721234183	0.5137068855347037
3.0069999999999757	0.3298384933014414	0.6273357119295846	0.6586248908443508	0.3717404942777669	0.3871077965874442	0.5163322014025359
3.0079999999999756	0.3305475513104897	0.6283164094374865	0.6607887065945605	0.3720315148735262	0.3875388383249922	0.518922188441351
3.0089999999999755	0.3312380079260142	0.6292996678333008	0.6629256829660677	0.3723177627463068	0.3879663983803736	0.5214743033586303
3.0099999999999754	0.3319092700041571	0.6302832969692961	0.6650343313066787	0.3725978884463927	0.3883899110211663	0.5239861174487719
3.0109999999999753	0.3325608065352337	0.6312651826847502	0.6671132453432184	0.3728706487178697	0.3888088437404148	0.526455321325978
3.011999999999975	0.3331921488905516	0.6322432898074716	0.6691611017260923	0.3731349056722512	0.389222697176299	0.5288797292664335
3.012999999999975	0.3338028908287684	0.6332156649193952	0.671176660322293	0.3733896256599441	0.3896310049505456	0.531257283147426
3.013999999999975	0.3343926882671366	0.6341804388816555	0.6731587642610226	0.3736338778550515	0.3900333334271808	0.5335860559718041
3.014999999999975	0.3349612588237823	0.6351358291136417	0.6751063397392904	0.3738668325691068	0.3904292813930227	0.5358642549676766
3.0159999999999747	0.3355083811383029	0.6360801416207622	0.6770183955980618	0.3740877593088609	0.3908184796618797	0.5380902242547383
3.0169999999999746	0.3360338939788287	0.6370117727660201	0.6788940226817965	0.3742960245929683	0.3912005906043457	0.5402624470708548
3.0179999999999745	0.3365376951445061	0.6379292107816441	0.6807323929955655	0.3744910895422577	0.391575307605416	0.542379547554426
3.0189999999999744	0.337019740173082	0.638831037018152	0.6825327586739968	0.3746725072580112	0.3919423544518114	0.5444402920797521
3.0199999999999743	0.337480040864089	0.6397159269290101	0.6842944507758554	0.3748399200030355	0.3923014846509255	0.5464435901439942
3.020999999999974	0.3379186636292621	0.6405826507898938	0.6860168779175514	0.3749930561997789	0.3926524806834019	0.5483884948057302
3.021999999999974	0.3383357276827393	0.6414300741520927	0.6876995247581208	0.3751317272599941	0.3929951531920477	0.5502742026760672
3.022999999999974	0.338731403084874	0.6422571580304328	0.6893419503475574	0.3752558242597268	0.3933293401106559	0.5521000534641025
3.023999999999974	0.3391059086540274	0.6430629588269972	0.6909437863493402	0.375365314473423	0.3936549057374963	0.5538655290797705
3.0249999999999737	0.3394595097611498	0.6438466279929261	0.6925047351475226	0.3754602377805865	0.3939717397594497	0.5555702522990366
3.0259999999999736	0.3397925160217998	0.6446074114319488	0.6940245678487205	0.375540702958906	0.3942797562337192	0.5572139849993449
3.0269999999999735	0.3401052788999719	0.6453446486506668	0.6955031221904309	0.3756068838782165	0.3945788925344296	0.558796625976376
3.0279999999999734	0.3403981892375488	0.6460577716624853	0.696940300368049	0.3756590156101785	0.3948691082713816	0.5603182083552695
3.0289999999999733	0.3406716747228149	0.6467463036529285	0.6983360667941011	0.3756973904689604	0.3951503841876984	0.5617788966108025
3.029999999999973	0.3409261973109075	0.6474098574147727	0.6996904458039311	0.3757223539979128	0.3954227210426236	0.5631789832111496
3.030999999999973	0.3411622506083459	0.6480481335615734	0.7010035193227927	0.3757343009169188	0.3956861384852793	0.5645188848997966
3.031999999999973	0.3413803572332808	0.6486609185274986	0.7022754245090028	0.3757336710446249	0.395940673924991	0.5657991386299532
3.032999999999973	0.3415810661621362	0.6492480823607595	0.7035063513876427	0.3757209452090246	0.3961863814033167	0.5670203971664716
3.0339999999999727	0.3417649500725891	0.6498095763168044	0.7046965404880988	0.3756966411595581	0.3964233304729622	0.5681834243717244
3.0349999999999726	0.341932602691901	0.6503454302572567	0.7058462804979667	0.3756613094932557	0.3966516050886946	0.5692890901946897
3.0359999999999725	0.3420846361586839	0.650855749861301	0.7069559059441131	0.3756155296074079	0.3968713025153876	0.5703383653849884
3.0369999999999724	0.3422216784052854	0.6513407136572573	0.7080257949105476	0.3755599056912148	0.397082532258023	0.5713323159551462
3.0379999999999723	0.3423443705668533	0.6518005698835166	0.7090563668012234	0.3754950627692187	0.3972854150180713	0.5722720974142211
3.038999999999972	0.3424533644226176	0.6522356331883427	0.710048080154679	0.375421642809196	0.3974800816798116	0.5731589487961132
3.039999999999972	0.3425493198746442	0.6526462811781806	0.7110014305162634	0.375340300907	0.3976666723296737	0.5739941865059758
3.040999999999972	0.3426329024701295	0.6530329508241417	0.7119169483722756	0.3752517015605262	0.397845335310954	0.5747791980093871
3.041999999999972	0.3427047809745819	0.6533961347366406	0.7127951971492645	0.3751565150445776	0.3980162263158656	0.5755154353896239
3.0429999999999717	0.3427656250038773	0.6537363773193404	0.7136367712804503	0.3750554138982619	0.3981795075163363	0.5762044087996255
3.0439999999999716	0.342816102723622	0.6540542708145461	0.7144422943398441	0.3749490695358825	0.3983353467345212	0.5768476798358456
3.0449999999999715	0.3428568786234769	0.6543504512539879	0.7152124172434355	0.3748381489918094	0.3984839166540993	0.5774468548623062
3.0459999999999714	0.3428886113733188	0.6546255943302718	0.7159478165156391	0.3747233118090194	0.3986253940734771	0.5780035783136831
3.0469999999999713	0.3429119517670664	0.6548804112060641	0.7166491926182968	0.3746052070800547	0.398759959202829	0.5785195260065362
3.047999999999971	0.3429275407590779	0.6551156442796257	0.7173172683392249	0.3744844706481053	0.3988877950070768	0.5789963984878053
3.048999999999971	0.3429360075972487	0.6553320629266518	0.7179527872369411	0.3743617224749747	0.3990090865970854	0.5794359144491632
3.049999999999971	0.3429379680561488	0.6555304592397093	0.7185565121384379	0.3742375641815171	0.399124020671008	0.5798398042354553
3.050999999999971	0.3429340227734849	0.6557116437867743	0.7191292236867598	0.3741125767655545	0.3992327850075173	0.5802098034749941
3.0519999999999707	0.3429247556926534	0.6558764414098213	0.7196717189348713	0.3739873185013737	0.3993355680118926	0.5805476468590713
3.0529999999999706	0.3429107326146098	0.6560256870836088	0.7201848099814959	0.3738623230241387	0.3994325583152979	0.5808550620972335
3.0539999999999705	0.342892499862014	0.6561602218534159	0.7206693226430964	0.3737380976018979	0.3995239444264755	0.5811337640737962
3.0549999999999704	0.3428705830586141	0.6562808888698363	0.7211260951542127	0.3736151215967809	0.3996099144342448	0.5813854492294823
3.0559999999999703	0.3428454860265723	0.656388529537802	0.7215559768864585	0.3734938451163238	0.3996906557581542	0.5816117901902266
3.05699999999997	0.3428176898039693	0.6564839797966159	0.7219598270752716	0.3733746878552723	0.3997663549438968	0.5818144306635891
3.05799999999997	0.3427876517841875	0.6565680665473799	0.7223385135439345	0.3732580381275456	0.3998371974990878	0.5819949806212007
3.05899999999997	0.3427558049784119	0.6566416042439939	0.7226929114149967	0.3731442520878454	0.3999033677643083	0.5821550117839658
3.05999999999997	0.342722557401694	0.6567053916639611	0.723023901800512	0.3730336531417721	0.399965048813599	0.5822960534246965
3.0609999999999697	0.342688291582391	0.6567602088748854	0.7233323704638764	0.3729265315430721	0.4000224223780766	0.5824195885008911
3.0619999999999696	0.3426533641939471	0.6568068144117738	0.7236192064481604	0.3728231441760327	0.4000756687858964	0.5825270501284682
3.0629999999999695	0.3426181058074763	0.6568459426787354	0.7238853006682361	0.3727237145205427	0.4001249669112541	0.5826198184054561
